<svg height="128" viewBox="0 0 128 128" width="128" xmlns="http://www.w3.org/2000/svg"><path d="m18.064 121.693a11.757 11.757 0 0 1 -11.757-11.758v-103.628h91.871v103.628a11.757 11.757 0 0 0 11.757 11.758z" fill="#dff6fd"/><path d="m98.178 109.935a11.757 11.757 0 0 0 11.757 11.758 11.758 11.758 0 0 0 11.758-11.758v-61.035h-23.515z" fill="#c8effe"/><path d="m21.173 48.902h28.963v28.963h-28.963z" fill="#9cf8d2"/><path d="m121.693 47.151h-21.765v-40.844a1.75 1.75 0 0 0 -1.75-1.75h-91.871a1.75 1.75 0 0 0 -1.75 1.75v16.982a1.75 1.75 0 0 0 3.5 0v-15.232h88.371v101.878a13.461 13.461 0 0 0 4.467 10.008h-82.831a10.018 10.018 0 0 1 -10.007-10.008v-77.284a1.75 1.75 0 1 0 -3.5 0v77.284a13.523 13.523 0 0 0 13.507 13.508h91.871a13.522 13.522 0 0 0 13.508-13.508v-4.7a1.75 1.75 0 0 0 -3.5 0v4.7a10.008 10.008 0 1 1 -20.015 0v-59.284h20.015v31.189a1.75 1.75 0 0 0 3.5 0v-32.94a1.75 1.75 0 0 0 -1.75-1.749z"/><path d="m121.693 89.746a1.75 1.75 0 0 0 -1.75 1.75v4.5a1.75 1.75 0 0 0 3.5 0v-4.496a1.749 1.749 0 0 0 -1.75-1.754z"/><path d="m21.173 108.577h62.138a1.75 1.75 0 0 0 0-3.5h-62.138a1.75 1.75 0 0 0 0 3.5z"/><path d="m62.867 48.9a1.75 1.75 0 0 0 1.75 1.75h18.694a1.75 1.75 0 0 0 0-3.5h-18.694a1.751 1.751 0 0 0 -1.75 1.75z"/><path d="m83.311 61.633h-18.694a1.75 1.75 0 1 0 0 3.5h18.694a1.75 1.75 0 1 0 0-3.5z"/><path d="m83.311 76.114h-18.694a1.75 1.75 0 0 0 0 3.5h18.694a1.75 1.75 0 0 0 0-3.5z"/><path d="m21.173 94.1h62.138a1.75 1.75 0 0 0 0-3.5h-62.138a1.75 1.75 0 0 0 0 3.5z"/><path d="m22.704 24.78 7.187 9.64h3.213v-14.917h-3.213v9.641l-7.187-9.641h-3.192v14.917h3.192z"/><path d="m47.68 22.391v-2.888h-11.487v14.917h11.487v-2.887h-8.273v-3.28h7.491v-2.887h-7.491v-2.975z"/><path d="m65.38 29.513-3.3-10.01h-3.474l-3.3 10.01-2.758-10.01h-3.474l4.516 14.917h3.236l3.539-10.249 3.517 10.249h3.214l4.515-14.917h-3.473z"/><path d="m79.306 31.967a7.365 7.365 0 0 1 -4.906-1.955l-1.845 2.194a9.585 9.585 0 0 0 6.623 2.475c3.647 0 5.8-1.89 5.8-4.733 0-2.758-2.128-3.713-5.341-4.43-2.3-.522-3.193-.868-3.193-1.954 0-.891.826-1.608 2.194-1.608a6.919 6.919 0 0 1 4.256 1.651l1.672-2.3a8.615 8.615 0 0 0 -5.841-2.062c-3.257 0-5.516 1.889-5.516 4.646 0 2.888 2.237 3.778 5.386 4.5 2.279.521 3.148.847 3.148 1.91-.005.928-.83 1.666-2.437 1.666z"/><path d="m19.423 77.864a1.749 1.749 0 0 0 1.75 1.75h28.963a1.75 1.75 0 0 0 1.75-1.75v-28.964a1.751 1.751 0 0 0 -1.75-1.75h-28.963a1.75 1.75 0 0 0 -1.75 1.75zm3.5-27.213h25.463v25.463h-25.463z"/></svg>