<svg version="1.1" viewBox="0.0 0.0 795.1207349081365 107.48031496062993" fill="none" stroke="none" stroke-linecap="square" stroke-miterlimit="10" xmlns:xlink="http://www.w3.org/1999/xlink" xmlns="http://www.w3.org/2000/svg"><clipPath id="p.0"><path d="m0 0l795.1207 0l0 107.480316l-795.1207 0l0 -107.480316z" clip-rule="nonzero"/></clipPath><g clip-path="url(#p.0)"><path fill="#000000" fill-opacity="0.0" d="m0 0l795.1207 0l0 107.480316l-795.1207 0z" fill-rule="evenodd"/><path fill="#1a4cae" d="m33.11058 2.6302118E-4l-15.89834 74.82731c-0.86135674 4.029335 -1.5256271 6.744751 -1.9927673 8.1462555c-0.4671831 1.4015121 -1.3723373 2.5840302 -2.7154188 3.5475693c-1.3431244 0.9635315 -3.0001001 1.4453049 -4.9709682 1.4453049c-0.7445507 0 -1.9416566 -0.06569672 -3.5913606 -0.19709015l-3.941737 18.591858l13.861774 0c6.131592 0 10.817879 -0.46717072 14.058863 -1.4015045c3.240984 -0.9489441 6.00749 -2.6497269 8.299547 -5.1023636c2.3066368 -2.4526367 3.890625 -5.1972504 4.7519836 -8.233849c0.86133194 -3.0512009 2.4234238 -9.89814 4.686287 -20.540825l15.109989 -71.082664zm170.9838 7.5549955l-2.912506 13.730384l-5.715515 0l-2.9344177 13.79608l5.7155304 0l-9.416382 44.278843c-1.8394775 8.671822 -2.76651 14.182953 -2.7811127 16.533401c-0.014602661 2.3358383 0.766449 4.4161987 2.3431396 6.241081c1.5913086 1.8102798 3.620575 2.9709015 6.087799 3.481865c2.4818268 0.4963684 6.744751 0.7445526 12.788742 0.7445526l10.708389 0l2.9782104 -14.058861c-4.3359222 0 -6.7301636 -0.32847595 -7.182724 -0.9854355c-0.43797302 -0.6569519 -0.051101685 -3.8541412 1.160614 -9.59156l9.920044 -46.643887l7.1608276 0l2.9344025 -13.79608l-7.1608276 0l2.912506 -13.730384zm-137.8732 11.628125l-12.504063 58.797573c-1.591301 7.4893036 -2.5037498 12.496765 -2.73732 15.0224c-0.2189827 2.511032 0.05109024 4.92717 0.8102455 7.2484207c0.7591591 2.3212433 2.299347 4.182617 4.620594 5.5841217c2.3358498 1.4015121 5.4965324 2.1022644 9.482067 2.1022644c3.503769 0 6.7520447 -0.7299576 9.74485 -2.1898575c3.007393 -1.4745026 5.744705 -3.678955 8.211952 -6.6133575l0 0l-1.9927673 7.2265167l27.0009 0l18.526161 -87.178085l-26.54103 0l-12.460266 58.666187c-1.5182953 7.1389236 -2.6059265 11.365341 -3.262886 12.679253c-0.64234924 1.3139114 -1.948967 1.970871 -3.919838 1.970871c-1.8394775 0 -2.832199 -0.6350632 -2.9781952 -1.9051743c-0.14600372 -1.2701187 0.49634552 -5.299446 1.9270706 -12.087997l12.613556 -59.32314zm96.50686 -1.5766964c-5.825012 0 -11.131744 0.8978405 -15.920227 2.6935215c-4.7738953 1.7956791 -8.430939 4.3505116 -10.971176 7.664488c-2.5402222 3.2993813 -4.5476074 8.430937 -6.0220947 15.394674c-1.0511322 4.9052734 -1.1022186 9.14629 -0.1532898 12.723049c0.94892883 3.5621643 4.8541565 7.5331 11.7157135 11.912804c8.190063 5.1680603 12.67926 8.277649 13.467606 9.328781c0.7445526 1.0511322 0.67155457 3.6570587 -0.21899414 7.8177795c-0.64234924 3.0219955 -1.4379883 5.0074615 -2.3869324 5.956398c-0.93434143 0.9343338 -2.3431396 1.4015121 -4.226425 1.4015121c-1.7518768 0 -2.7811127 -0.7007599 -3.0876923 -2.1022644c-0.29196167 -1.4015045 0.065704346 -4.445404 1.0730286 -9.131691l1.1606293 -5.5184326l-23.519035 0l-0.8978348 4.204521c-1.5475082 7.270317 -1.8029938 12.701157 -0.766449 16.292511c1.0365219 3.591362 3.7300415 6.4381714 8.080551 8.540436c4.350525 2.1022568 9.898148 3.153389 16.642899 3.153389c6.087799 0 11.489441 -0.97084045 16.20491 -2.912506c4.7300873 -1.9562759 8.401749 -4.7373886 11.014969 -8.343346c2.6132202 -3.6205597 4.6716766 -8.978401 6.1753845 -16.073524c1.3431091 -6.3505783 1.167923 -11.190155 -0.5255585 -14.51873c-1.7080841 -3.3285828 -6.014801 -6.8761444 -12.9201355 -10.642693c-5.1680603 -2.8468094 -8.525833 -5.0147667 -10.073334 -6.503868c-1.5475006 -1.4891014 -2.3796387 -2.854107 -2.4964294 -4.095024c-0.10220337 -1.255516 0.13139343 -3.2190857 0.7007446 -5.890709c0.42337036 -1.9708672 1.1095123 -3.4453697 2.0584717 -4.423504c0.9635315 -0.992733 2.1898499 -1.4891014 3.678955 -1.4891014c1.8394775 0 2.8687134 0.54016495 3.0876923 1.620491c0.2335968 1.065731 -0.07298279 3.6132584 -0.91973877 7.6425896l-1.0073395 4.7300873l23.519043 0l1.0730286 -5.058563c0.93434143 -4.3797073 1.3869171 -7.598793 1.3576965 -9.657257c-0.014602661 -2.0584621 -0.8540344 -4.2921124 -2.5183258 -6.7009525c-1.6496887 -2.4088383 -4.3504944 -4.34321 -8.102463 -5.803112c-3.7373505 -1.4745026 -8.496628 -2.2117538 -14.277847 -2.2117538z" fill-rule="evenodd"/><path fill="#1a4cae" d="m403.32727 33.04516c1.4891052 0 2.3285522 0.6569557 2.518341 1.9708672c0.20437622 1.3139153 -0.1678772 4.2264175 -1.1168213 8.737518l-1.357727 6.3724747l-7.752075 0l1.357727 -6.3724747c1.0365295 -4.9052734 1.890564 -7.91267 2.5621033 -9.022198c0.6861572 -1.1241226 1.9489746 -1.6861877 3.7884521 -1.6861877zm-134.5227 -25.489899l-2.912506 13.730384l-5.715515 0l-2.9344177 13.79608l5.715515 0l-9.416367 44.278843c-1.8394775 8.671822 -2.7665253 14.182953 -2.7811127 16.533401c-0.014602661 2.3358383 0.766449 4.4161987 2.3431396 6.241081c1.5912933 1.8102798 3.6205444 2.9709015 6.087799 3.481865c2.481842 0.4963684 6.744751 0.7445526 12.788727 0.7445526l10.708405 0l2.9782104 -14.058861c-4.3359375 0 -6.7301636 -0.32847595 -7.1827393 -0.9854355c-0.43795776 -0.6569519 -0.051086426 -3.8541412 1.160614 -9.59156l9.920044 -46.643887l7.1608276 0l2.9344177 -13.79608l-7.1608276 0l2.912506 -13.730384zm41.213043 -7.5549955l-22.599304 106.361206l26.541046 0l13.226715 -62.21375c0.9343262 -4.423504 1.8467712 -7.3798065 2.7373047 -8.868908c0.89053345 -1.4891014 2.1460571 -2.2336502 3.7665405 -2.2336502c1.7518921 0 2.7227173 0.72265244 2.912506 2.1679535c0.20440674 1.4453049 -0.23358154 4.708187 -1.3139038 9.7886505l-13.051514 61.359703l26.541016 0l12.766846 -60.11149c1.7518921 -8.190052 2.591339 -13.825275 2.518341 -16.905672c-0.058410645 -3.0949917 -1.4745178 -5.8250103 -4.2483215 -8.190054c-2.7592163 -2.3650417 -6.4600525 -3.5475636 -11.10257 -3.5475636c-3.0219727 0 -5.970978 0.5255661 -8.846985 1.5766964c-2.8614197 1.0511284 -5.657135 2.6278248 -8.387146 4.7300835l5.0804443 -23.913204zm95.32434 17.606424c-6.087799 0 -11.723022 1.1752224 -16.90567 3.5256653c-5.1826477 2.335846 -9.270386 5.7082214 -12.263184 10.117125c-2.9927979 4.39431 -5.2994385 10.401806 -6.9199524 18.0225l-5.4089355 25.424206c-1.3723145 6.481964 -1.963562 11.423729 -1.7737732 14.82531c0.20437622 3.3869705 1.197113 6.496559 2.9782104 9.3287735c1.7956543 2.8176117 4.6643677 5.036667 8.60611 6.657158c3.9563293 1.620491 8.737518 2.4307404 14.343536 2.4307404c5.7812195 0 10.759491 -0.81755066 14.934814 -2.4526367c4.189911 -1.6496964 7.8761597 -4.116928 11.058777 -7.4017105c3.197174 -3.2847748 5.4381104 -6.3724747 6.7228394 -9.263077c1.2993164 -2.8906097 2.5256348 -7.029434 3.678955 -12.416473l1.3576965 -6.4381714l-25.161407 0l-2.4307556 11.496735c-0.91973877 4.335907 -1.8832703 7.263008 -2.8905945 8.781311c-0.9927368 1.5037003 -2.4964294 2.2555542 -4.5111084 2.2555542c-1.6204834 0 -2.5986023 -0.56936646 -2.9343872 -1.7080917c-0.3211975 -1.1387177 -0.065704346 -3.678955 0.766449 -7.6206894l4.007416 -18.854645l34.358826 0l2.4526367 -11.562424c1.7956848 -8.452839 2.211731 -15.007797 1.2481995 -19.66489c-0.9489136 -4.671686 -3.5475464 -8.416336 -7.795868 -11.23395c-4.233734 -2.8322124 -10.073334 -4.2483177 -17.51883 -4.2483177z" fill-rule="evenodd"/><path fill="#1a4cae" d="m765.22253 2.6302118E-4l-12.67926 80.08296l20.49701 0l21.351135 -80.08296zm-220.34308 64.90727l-3.8103638 17.934906c-0.91973877 4.3797073 -1.7445679 7.087822 -2.4745483 8.124359c-0.71533203 1.0219269 -1.9051514 1.532898 -3.569458 1.532898c-1.7518921 0 -2.788391 -0.65695953 -3.109558 -1.970871c-0.3065796 -1.3139114 0.014587402 -4.2264175 0.963501 -8.737518c0.8467407 -3.9417343 1.8321533 -6.9637375 2.9562988 -9.065994c1.1241455 -2.1022568 4.138855 -4.7081833 9.044128 -7.8177795zm-71.08267 -64.90727l-22.599304 106.361206l27.657867 0l9.503967 -44.67302l17.080841 0l4.2921143 -20.23425l-17.080841 0l4.2921143 -20.168554l19.183105 0l4.5111084 -21.28538zm186.88211 7.5549955l-2.9124756 13.730384l-5.715515 0l-2.9344482 13.79608l5.715515 0l-9.416321 44.278843c-1.8394775 8.671822 -2.7665405 14.182953 -2.781128 16.533401c-0.014587402 2.3358383 0.76641846 4.4161987 2.3431396 6.241081c1.5913086 1.8102798 3.6205444 2.9709015 6.0877686 3.481865c2.4818726 0.4963684 6.744751 0.7445526 12.788757 0.7445526l10.708374 0l2.9782104 -14.058861c-4.3358765 0 -6.7301025 -0.32847595 -7.182678 -0.9854355c-0.43798828 -0.6569519 -0.05114746 -3.8541412 1.1605835 -9.59156l9.920044 -46.643887l7.1608276 0l2.9343872 -13.79608l-7.1608276 0l2.9125366 -13.730384zm88.645325 77.52083l-4.53302 21.285378l24.832947 0l4.53302 -21.285378zm-197.74384 -67.4694c-7.489319 0 -13.876343 1.4015064 -19.161194 4.204521c-5.2702637 2.8030128 -9.073303 6.0366974 -11.40918 9.701052c-2.3358154 3.6497574 -4.219116 8.847012 -5.6497803 15.591759l-1.24823 5.8469124l24.89862 0l1.9489746 -9.131691c1.03656 -4.861477 1.8978882 -7.8688736 2.5840454 -9.022198c0.6861572 -1.167923 1.927063 -1.7518845 3.7227173 -1.7518845c1.5767212 0 2.5548706 0.69345474 2.9344482 2.0803604c0.37957764 1.3723106 0.08758545 4.335911 -0.87597656 8.890808c-0.7737427 3.6351585 -1.5913086 6.043995 -2.4526367 7.2265167c-0.8613281 1.1825218 -6.0147705 3.4818687 -15.460388 6.898041c-8.817749 3.153389 -14.511414 5.9126053 -17.08081 8.277649c-2.55484 2.3650436 -4.5257263 6.8104477 -5.912628 13.336212l-1.5109863 7.16082c-1.8686829 8.803215 -1.1460266 14.511429 2.1679382 17.124657c3.3286133 2.5986252 7.314148 3.8979416 11.956604 3.8979416c3.5475464 0 6.7666626 -0.7737503 9.657288 -2.321251c2.890564 -1.5620956 5.4746094 -3.897934 7.752075 -7.00753l0 0l-1.642395 7.752083l25.81836 0l9.306885 -43.75328c3.0512085 -14.409237 4.605957 -23.920502 4.6643677 -28.533794c0.07299805 -4.6278896 -1.8321533 -8.525829 -5.715515 -11.693821c-3.8833008 -3.1825886 -10.314209 -4.773882 -19.292603 -4.773882zm67.73218 0c-6.963745 0 -13.190186 1.481802 -18.679443 4.445404c-5.489258 2.9490051 -9.379883 6.30678 -11.671936 10.073328c-2.2774658 3.7665482 -4.204529 9.3506775 -5.781189 16.752384l-5.2556763 24.767246c-1.8102417 8.496635 -2.2993164 15.058891 -1.4671631 19.686783c0.8320923 4.613289 3.1679688 8.204651 7.0075073 10.774086c3.8395386 2.5548248 9.503967 3.8322449 16.993286 3.8322449c5.8687744 0 10.993042 -0.9270401 15.372742 -2.7811203c4.3796997 -1.8686752 8.190063 -4.6278915 11.43103 -8.277641c3.2556152 -3.66436 5.4819946 -7.2338257 6.679077 -10.708389c1.211731 -3.4891663 2.5767212 -8.715614 4.0950317 -15.679352l-23.650452 0l-2.211731 10.379906c-0.9489136 4.511101 -1.9124756 7.5768967 -2.890625 9.197388c-0.9781494 1.620491 -2.3650513 2.4307404 -4.1607056 2.4307404c-1.532898 0 -2.532959 -0.77375793 -3.000122 -2.321251c-0.45257568 -1.5620956 -0.3503418 -3.897934 0.3065796 -7.00753l8.737549 -41.125454c0.8175049 -3.8103485 1.605896 -6.262985 2.3650513 -7.35791c0.7591553 -1.0949287 1.9051514 -1.6423912 3.4380493 -1.6423912c1.532898 0 2.4453735 0.627758 2.7373047 1.8832741c0.3065796 1.240921 0.08758545 3.6132584 -0.6569214 7.1170273l-2.1242065 10.051426l25.03009 0c1.7372437 -8.190052 2.2700806 -14.51873 1.5985718 -18.98603c-0.6715698 -4.4673023 -3.1533813 -8.168156 -7.4454956 -11.10256c-4.277527 -2.9344044 -9.876282 -4.4016075 -16.796204 -4.4016075zm104.324646 0c-5.825012 0 -11.131775 0.8978405 -15.920227 2.6935215c-4.7738647 1.7956791 -8.430969 4.3505116 -10.971191 7.664488c-2.5402222 3.2993813 -4.5476074 8.430937 -6.0220947 15.394674c-1.0511475 4.9052734 -1.1022339 9.14629 -0.15325928 12.723049c0.9489136 3.5621643 4.854126 7.5331 11.715698 11.912804c8.190063 5.1680603 12.67926 8.277649 13.46759 9.328781c0.7445679 1.0511322 0.6715698 3.6570587 -0.21899414 7.8177795c-0.642334 3.0219955 -1.4379883 5.0074615 -2.3869019 5.956398c-0.9343872 0.9343338 -2.3431396 1.4015121 -4.2264404 1.4015121c-1.7518921 0 -2.781128 -0.7007599 -3.0877075 -2.1022644c-0.29193115 -1.4015045 0.06573486 -4.445404 1.0730591 -9.131691l1.1605835 -5.5184326l-23.518982 0l-0.8978882 4.204521c-1.5474854 7.270317 -1.8029785 12.701157 -0.76641846 16.292511c1.036499 3.591362 3.7300415 6.4381714 8.080566 8.540436c4.350525 2.1022568 9.898132 3.153389 16.642883 3.153389c6.0877686 0 11.489441 -0.97084045 16.204895 -2.912506c4.7301025 -1.9562759 8.401794 -4.7373886 11.015015 -8.343346c2.6131592 -3.6205597 4.671631 -8.978401 6.175354 -16.073524c1.3430786 -6.3505783 1.1679077 -11.190155 -0.52557373 -14.51873c-1.7080688 -3.3285828 -6.0147705 -6.8761444 -12.920105 -10.642693c-5.168091 -2.8468094 -8.525818 -5.0147667 -10.073364 -6.503868c-1.5474854 -1.4891014 -2.3796387 -2.854107 -2.496399 -4.095024c-0.10223389 -1.255516 0.13134766 -3.2190857 0.7007446 -5.890709c0.42333984 -1.9708672 1.1094971 -3.4453697 2.0584717 -4.423504c0.963501 -0.992733 2.1898193 -1.4891014 3.678955 -1.4891014c1.8394775 0 2.8687134 0.54016495 3.0876465 1.620491c0.23364258 1.065731 -0.07293701 3.6132584 -0.91973877 7.6425896l-1.0073242 4.7300873l23.519043 0l1.0730591 -5.058563c0.9343262 -4.3797073 1.3868408 -7.598793 1.357666 -9.657257c-0.014587402 -2.0584621 -0.8540039 -4.2921124 -2.5183105 -6.7009525c-1.6496582 -2.4088383 -4.350525 -4.34321 -8.102478 -5.803112c-3.7373657 -1.4745026 -8.496643 -2.2117538 -14.277832 -2.2117538z" fill-rule="evenodd"/></g></svg>